<svg xmlns="http://www.w3.org/2000/svg" viewBox="0 0 678.02 546.93"><defs><style>.cls-1{fill:#413b97;}</style></defs><g id="Layer_2" data-name="Layer 2"><g id="Layer_1-2" data-name="Layer 1"><path class="cls-1" d="M404.55,170.73a102,102,0,0,0-40.5,8.35,130.44,130.44,0,0,1,0,188.77,102.73,102.73,0,1,0,40.51-197.12Z"/><path class="cls-1" d="M81.24,461.45c-8.78-.81-16.36-8.9-15-18.29.68-4.65,3.28-8.9,5.81-13,14.21-22.88,28.93-45.89,43.84-69a300.5,300.5,0,0,1-13-87.77c0-120.83,71.44-225.24,174.26-273.37-1.22,0-2.42-.09-3.64-.09C122.68,0,0,122.68,0,273.46S122.68,546.93,273.47,546.93c1.22,0,2.42-.07,3.64-.09A303.69,303.69,0,0,1,133,404.62q-4.75,8.64-9.24,17.38C115.07,438.9,102.37,463.37,81.24,461.45Z"/><path class="cls-1" d="M404.55,0C253.76,0,131.09,122.68,131.09,273.46a273,273,0,0,0,5.69,55.59c28.81-44.24,57.93-88.55,85.4-132.42,3.64-5.81,4.12-13.06.87-18.36-29.85-48.75,8.13-110.59,52.81-139.85,22.72-14.88,60.07-34.07,77.19-6.51,5.24,8.43,6.94,19.13,6.54,29.72-1.33,34.87-15,77.88-37.18,106.46-16.73,21.61-42.63,37.4-67.23,35.68a7.87,7.87,0,0,0-7.45,4.2c-26.15,48.69-55.46,95.61-83.65,143.14q-6.86,11.53-13.74,23.15c40.21,101.05,139,172.67,254.21,172.67C555.34,546.93,678,424.25,678,273.46S555.34,0,404.55,0Zm0,404.44a131.13,131.13,0,0,1-131-131c0-72.22,58.76-131,131-131s131,58.75,131,131A131.12,131.12,0,0,1,404.55,404.44Z"/></g></g></svg>